<svg width="20" height="405" viewBox="0 0 20 405" fill="none" xmlns="http://www.w3.org/2000/svg">
<g filter="url(#filter0_d_28_973)">
<path d="M10 395L11.4434 392.5L8.55664 392.5L10 395ZM9.75 10L9.75 12.0052L10.25 12.0052L10.25 10L9.75 10ZM9.75 16.0156L9.75 20.026L10.25 20.026L10.25 16.0156L9.75 16.0156ZM9.75 24.0365L9.75 28.0469L10.25 28.0469L10.25 24.0365L9.75 24.0365ZM9.75 32.0573L9.75 36.0677L10.25 36.0677L10.25 32.0573L9.75 32.0573ZM9.75 40.0781L9.75 44.0885L10.25 44.0885L10.25 40.0781L9.75 40.0781ZM9.75 48.099L9.75 52.1094L10.25 52.1094L10.25 48.099L9.75 48.099ZM9.75 56.1198L9.75 60.1302L10.25 60.1302L10.25 56.1198L9.75 56.1198ZM9.75 64.1406L9.75 68.151L10.25 68.151L10.25 64.1406L9.75 64.1406ZM9.75 72.1615L9.75 76.1719L10.25 76.1719L10.25 72.1615L9.75 72.1615ZM9.75 80.1823L9.75 84.1927L10.25 84.1927L10.25 80.1823L9.75 80.1823ZM9.75 88.2031L9.75 92.2135L10.25 92.2135L10.25 88.2031L9.75 88.2031ZM9.75 96.2239L9.75 100.234L10.25 100.234L10.25 96.2239L9.75 96.2239ZM9.75 104.245L9.75 108.255L10.25 108.255L10.25 104.245L9.75 104.245ZM9.75 112.266L9.75 116.276L10.25 116.276L10.25 112.266L9.75 112.266ZM9.75 120.286L9.75 124.297L10.25 124.297L10.25 120.286L9.75 120.286ZM9.75001 128.307L9.75001 132.318L10.25 132.318L10.25 128.307L9.75001 128.307ZM9.75001 136.328L9.75001 140.339L10.25 140.339L10.25 136.328L9.75001 136.328ZM9.75001 144.349L9.75001 148.359L10.25 148.359L10.25 144.349L9.75001 144.349ZM9.75001 152.37L9.75001 156.38L10.25 156.38L10.25 152.37L9.75001 152.37ZM9.75001 160.391L9.75001 164.401L10.25 164.401L10.25 160.391L9.75001 160.391ZM9.75001 168.411L9.75001 172.422L10.25 172.422L10.25 168.411L9.75001 168.411ZM9.75001 176.432L9.75001 180.443L10.25 180.443L10.25 176.432L9.75001 176.432ZM9.75001 184.453L9.75001 188.464L10.25 188.464L10.25 184.453L9.75001 184.453ZM9.75001 192.474L9.75001 196.484L10.25 196.484L10.25 192.474L9.75001 192.474ZM9.75001 200.495L9.75001 204.505L10.25 204.505L10.25 200.495L9.75001 200.495ZM9.75001 208.516L9.75001 212.526L10.25 212.526L10.25 208.516L9.75001 208.516ZM9.75001 216.537L9.75001 220.547L10.25 220.547L10.25 216.537L9.75001 216.537ZM9.75001 224.557L9.75001 228.568L10.25 228.568L10.25 224.557L9.75001 224.557ZM9.75001 232.578L9.75001 236.589L10.25 236.589L10.25 232.578L9.75001 232.578ZM9.75001 240.599L9.75001 244.609L10.25 244.609L10.25 240.599L9.75001 240.599ZM9.75001 248.62L9.75001 252.63L10.25 252.63L10.25 248.62L9.75001 248.62ZM9.75001 256.641L9.75001 260.651L10.25 260.651L10.25 256.641L9.75001 256.641ZM9.75001 264.662L9.75001 268.672L10.25 268.672L10.25 264.662L9.75001 264.662ZM9.75001 272.682L9.75001 276.693L10.25 276.693L10.25 272.682L9.75001 272.682ZM9.75001 280.703L9.75001 284.714L10.25 284.714L10.25 280.703L9.75001 280.703ZM9.75001 288.724L9.75001 292.734L10.25 292.734L10.25 288.724L9.75001 288.724ZM9.75001 296.745L9.75001 300.755L10.25 300.755L10.25 296.745L9.75001 296.745ZM9.75001 304.766L9.75001 308.776L10.25 308.776L10.25 304.766L9.75001 304.766ZM9.75001 312.786L9.75001 316.797L10.25 316.797L10.25 312.786L9.75001 312.786ZM9.75001 320.807L9.75001 324.818L10.25 324.818L10.25 320.807L9.75001 320.807ZM9.75001 328.828L9.75001 332.838L10.25 332.838L10.25 328.828L9.75001 328.828ZM9.75001 336.849L9.75001 340.859L10.25 340.859L10.25 336.849L9.75001 336.849ZM9.75001 344.87L9.75001 348.88L10.25 348.88L10.25 344.87L9.75001 344.87ZM9.75001 352.891L9.75002 356.901L10.25 356.901L10.25 352.891L9.75001 352.891ZM9.75002 360.911L9.75002 364.922L10.25 364.922L10.25 360.911L9.75002 360.911ZM9.75002 368.932L9.75002 372.943L10.25 372.943L10.25 368.932L9.75002 368.932ZM9.75002 376.953L9.75002 380.963L10.25 380.963L10.25 376.953L9.75002 376.953ZM9.75002 384.974L9.75002 388.984L10.25 388.984L10.25 384.974L9.75002 384.974Z" fill="white"/>
</g>
<defs>
<filter id="filter0_d_28_973" x="3.55664" y="5" width="12.8867" height="395" filterUnits="userSpaceOnUse" color-interpolation-filters="sRGB">
<feFlood flood-opacity="0" result="BackgroundImageFix"/>
<feColorMatrix in="SourceAlpha" type="matrix" values="0 0 0 0 0 0 0 0 0 0 0 0 0 0 0 0 0 0 127 0" result="hardAlpha"/>
<feOffset/>
<feGaussianBlur stdDeviation="2.5"/>
<feComposite in2="hardAlpha" operator="out"/>
<feColorMatrix type="matrix" values="0 0 0 0 1 0 0 0 0 1 0 0 0 0 1 0 0 0 1 0"/>
<feBlend mode="normal" in2="BackgroundImageFix" result="effect1_dropShadow_28_973"/>
<feBlend mode="normal" in="SourceGraphic" in2="effect1_dropShadow_28_973" result="shape"/>
</filter>
</defs>
</svg>
