<svg width="560" height="26" viewBox="0 0 560 26" fill="none" xmlns="http://www.w3.org/2000/svg">
<g filter="url(#filter0_d_24_795)">
<path d="M546.5 14C547.052 14 547.5 13.5523 547.5 13C547.5 12.4477 547.052 12 546.5 12V14ZM12.5 14H14L14 12H12.5V14ZM17 14H20V12L17 12V14ZM23 14L26 14V12H23V14ZM29 14L32 14V12L29 12V14ZM35 14L38 14V12L35 12V14ZM41 14H44V12H41V14ZM47 14H50V12H47V14ZM53 14H56V12H53V14ZM59 14L62 14V12L59 12V14ZM65 14L68 14V12L65 12V14ZM71 14H74V12H71V14ZM77 14H80V12H77V14ZM83 14H86V12H83V14ZM89 14H92V12L89 12V14ZM95 14L98 14V12L95 12V14ZM101 14L104 14V12L101 12V14ZM107 14H110V12L107 12V14ZM113 14H116V12H113V14ZM119 14H122V12H119V14ZM125 14H128V12H125V14ZM131 14L134 14V12L131 12V14ZM137 14L140 14V12L137 12V14ZM143 14H146V12H143V14ZM149 14H152V12H149V14ZM155 14H158V12H155V14ZM161 14L164 14V12L161 12V14ZM167 14L170 14V12L167 12V14ZM173 14L176 14V12H173V14ZM179 14H182V12H179V14ZM185 14H188V12H185V14ZM191 14H194V12H191V14ZM197 14L200 14V12H197V14ZM203 14L206 14V12L203 12V14ZM209 14L212 14V12L209 12V14ZM215 14H218V12H215V14ZM221 14H224V12H221V14ZM227 14H230V12H227V14ZM233 14L236 14V12L233 12V14ZM239 14L242 14V12L239 12V14ZM245 14H248V12H245V14ZM251 14H254V12H251V14ZM257 14H260V12H257V14ZM263 14H266V12L263 12V14ZM269 14L272 14V12L269 12V14ZM275 14L278 14V12L275 12V14ZM281 14H284V12H281V14ZM287 14H290V12H287V14ZM293 14H296V12H293V14ZM299 14H302V12H299V14ZM305 14L308 14V12L305 12V14ZM311 14L314 14V12L311 12V14ZM317 14H320V12H317V14ZM323 14H326V12H323V14ZM329 14H332V12H329V14ZM335 14L338 14V12L335 12V14ZM341 14L344 14V12L341 12V14ZM347 14L350 14V12H347V14ZM353 14H356V12H353V14ZM359 14H362V12H359V14ZM365 14H368V12H365V14ZM371 14L374 14V12L371 12V14ZM377 14L380 14V12L377 12V14ZM383 14L386 14V12L383 12V14ZM389 14H392V12H389V14ZM395 14H398V12H395V14ZM401 14H404V12H401V14ZM407 14L410 14V12L407 12V14ZM413 14L416 14V12L413 12V14ZM419 14H422V12H419V14ZM425 14H428V12H425V14ZM431 14H434V12H431V14ZM437 14H440V12L437 12V14ZM443 14L446 14V12L443 12V14ZM449 14L452 14V12L449 12V14ZM455 14H458V12H455V14ZM461 14H464V12H461V14ZM467 14H470V12H467V14ZM473 14H476V12H473V14ZM479 14L482 14V12L479 12V14ZM485 14L488 14V12L485 12V14ZM491 14H494V12H491V14ZM497 14H500V12H497V14ZM503 14H506V12H503V14ZM509 14L512 14V12L509 12V14ZM515 14L518 14V12L515 12V14ZM521 14H524V12H521V14ZM527 14H530V12H527V14ZM533 14H536V12H533V14ZM539 14H542V12H539V14ZM545 14L546.5 14V12L545 12V14Z" fill="white"/>
</g>
<defs>
<filter id="filter0_d_24_795" x="0.5" y="0" width="559" height="26" filterUnits="userSpaceOnUse" color-interpolation-filters="sRGB">
<feFlood flood-opacity="0" result="BackgroundImageFix"/>
<feColorMatrix in="SourceAlpha" type="matrix" values="0 0 0 0 0 0 0 0 0 0 0 0 0 0 0 0 0 0 127 0" result="hardAlpha"/>
<feOffset/>
<feGaussianBlur stdDeviation="6"/>
<feComposite in2="hardAlpha" operator="out"/>
<feColorMatrix type="matrix" values="0 0 0 0 1 0 0 0 0 1 0 0 0 0 1 0 0 0 1 0"/>
<feBlend mode="normal" in2="BackgroundImageFix" result="effect1_dropShadow_24_795"/>
<feBlend mode="normal" in="SourceGraphic" in2="effect1_dropShadow_24_795" result="shape"/>
</filter>
</defs>
</svg>
