<svg width="560" height="26" viewBox="0 0 560 26" fill="none" xmlns="http://www.w3.org/2000/svg">
<g filter="url(#filter0_d_24_796)">
<path d="M547 14C547.552 14 548 13.5523 548 13C548 12.4477 547.552 12 547 12V14ZM12 14H13.5028V12H12V14ZM16.5084 14H19.514V12H16.5084V14ZM22.5197 14H25.5253V12H22.5197V14ZM28.5309 14H31.5365V12H28.5309V14ZM34.5421 14H37.5478V12H34.5421V14ZM40.5534 14H43.559V12H40.5534V14ZM46.5646 14H49.5702V12H46.5646V14ZM52.5759 14H55.5815V12H52.5759V14ZM58.5871 14H61.5927V12H58.5871V14ZM64.5983 14H67.6039V12H64.5983V14ZM70.6096 14H73.6152V12H70.6096V14ZM76.6208 14H79.6264V12H76.6208V14ZM82.632 14H85.6376V12H82.632V14ZM88.6433 14H91.6489V12H88.6433V14ZM94.6545 14H97.6601V12H94.6545V14ZM100.666 14H103.671V12H100.666V14ZM106.677 14H109.683V12H106.677V14ZM112.688 14H115.694V12H112.688V14ZM118.699 14H121.705V12H118.699V14ZM124.711 14H127.716V12H124.711V14ZM130.722 14H133.727V12H130.722V14ZM136.733 14H139.739V12H136.733V14ZM142.744 14H145.75V12H142.744V14ZM148.756 14H151.761V12H148.756V14ZM154.767 14H157.772V12H154.767V14ZM160.778 14H163.784V12H160.778V14ZM166.789 14H169.795V12H166.789V14ZM172.8 14H175.806V12H172.8V14ZM178.812 14H181.817V12H178.812V14ZM184.823 14H187.829V12H184.823V14ZM190.834 14H193.84V12H190.834V14ZM196.845 14H199.851V12H196.845V14ZM202.857 14H205.862V12H202.857V14ZM208.868 14H211.873V12H208.868V14ZM214.879 14H217.885V12H214.879V14ZM220.89 14H223.896V12H220.89V14ZM226.902 14H229.907V12H226.902V14ZM232.913 14H235.918V12H232.913V14ZM238.924 14H241.93V12H238.924V14ZM244.935 14H247.941V12H244.935V14ZM250.946 14H253.952V12H250.946V14ZM256.958 14H259.963V12H256.958V14ZM262.969 14H265.975V12H262.969V14ZM268.98 14H271.986V12H268.98V14ZM274.991 14H277.997V12H274.991V14ZM281.003 14H284.008V12H281.003V14ZM287.014 14H290.019V12H287.014V14ZM293.025 14H296.031V12H293.025V14ZM299.036 14H302.042V12H299.036V14ZM305.048 14H308.053V12H305.048V14ZM311.059 14H314.064V12H311.059V14ZM317.07 14H320.076V12H317.07V14ZM323.081 14H326.087V12H323.081V14ZM329.092 14H332.098V12H329.092V14ZM335.104 14H338.109V12H335.104V14ZM341.115 14H344.121V12H341.115V14ZM347.126 14H350.132V12H347.126V14ZM353.137 14H356.143V12H353.137V14ZM359.149 14H362.154V12H359.149V14ZM365.16 14H368.165V12H365.16V14ZM371.171 14H374.177V12H371.171V14ZM377.182 14H380.188V12H377.182V14ZM383.194 14H386.199V12H383.194V14ZM389.205 14H392.21V12H389.205V14ZM395.216 14H398.222V12H395.216V14ZM401.227 14H404.233V12H401.227V14ZM407.239 14H410.244V12H407.239V14ZM413.25 14H416.255V12H413.25V14ZM419.261 14H422.267V12H419.261V14ZM425.272 14H428.278V12H425.272V14ZM431.283 14H434.289V12H431.283V14ZM437.295 14H440.3V12H437.295V14ZM443.306 14H446.311V12H443.306V14ZM449.317 14H452.323V12H449.317V14ZM455.328 14H458.334V12H455.328V14ZM461.34 14H464.345V12H461.34V14ZM467.351 14H470.356V12H467.351V14ZM473.362 14H476.368V12H473.362V14ZM479.373 14H482.379V12H479.373V14ZM485.384 14H488.39V12H485.384V14ZM491.396 14H494.401V12H491.396V14ZM497.407 14H500.413V12H497.407V14ZM503.418 14H506.424V12H503.418V14ZM509.429 14H512.435V12H509.429V14ZM515.441 14H518.446V12H515.441V14ZM521.452 14H524.458V12H521.452V14ZM527.463 14H530.469V12H527.463V14ZM533.474 14H536.48V12H533.474V14ZM539.486 14H542.491V12H539.486V14ZM545.497 14H547V12H545.497V14Z" fill="white"/>
</g>
<defs>
<filter id="filter0_d_24_796" x="0" y="0" width="560" height="26" filterUnits="userSpaceOnUse" color-interpolation-filters="sRGB">
<feFlood flood-opacity="0" result="BackgroundImageFix"/>
<feColorMatrix in="SourceAlpha" type="matrix" values="0 0 0 0 0 0 0 0 0 0 0 0 0 0 0 0 0 0 127 0" result="hardAlpha"/>
<feOffset/>
<feGaussianBlur stdDeviation="6"/>
<feComposite in2="hardAlpha" operator="out"/>
<feColorMatrix type="matrix" values="0 0 0 0 1 0 0 0 0 1 0 0 0 0 1 0 0 0 1 0"/>
<feBlend mode="normal" in2="BackgroundImageFix" result="effect1_dropShadow_24_796"/>
<feBlend mode="normal" in="SourceGraphic" in2="effect1_dropShadow_24_796" result="shape"/>
</filter>
</defs>
</svg>
